<svg width="64" height="64" viewBox="0 0 64 64" xmlns="http://www.w3.org/2000/svg">
  <defs>
    <linearGradient id="bgGradient" x1="0%" y1="0%" x2="100%" y2="100%">
      <stop offset="0%" style="stop-color:#4a90e2;stop-opacity:1" />
      <stop offset="100%" style="stop-color:#357abd;stop-opacity:1" />
    </linearGradient>
  </defs>
  
  <!-- Background circle -->
  <circle cx="32" cy="32" r="30" fill="url(#bgGradient)" stroke="#2c5aa0" stroke-width="2"/>
  
  <!-- Phone/CDR icon -->
  <rect x="20" y="12" width="24" height="40" rx="3" ry="3" fill="#ffffff" opacity="0.9"/>
  <rect x="22" y="14" width="20" height="36" rx="2" ry="2" fill="#f0f0f0"/>
  
  <!-- Screen lines representing call data -->
  <line x1="24" y1="18" x2="40" y2="18" stroke="#4a90e2" stroke-width="1.5"/>
  <line x1="24" y1="22" x2="38" y2="22" stroke="#4a90e2" stroke-width="1.5"/>
  <line x1="24" y1="26" x2="40" y2="26" stroke="#4a90e2" stroke-width="1.5"/>
  <line x1="24" y1="30" x2="36" y2="30" stroke="#4a90e2" stroke-width="1.5"/>
  <line x1="24" y1="34" x2="40" y2="34" stroke="#4a90e2" stroke-width="1.5"/>
  <line x1="24" y1="38" x2="38" y2="38" stroke="#4a90e2" stroke-width="1.5"/>
  <line x1="24" y1="42" x2="35" y2="42" stroke="#4a90e2" stroke-width="1.5"/>
  
  <!-- Analysis symbol (magnifying glass) -->
  <circle cx="48" cy="48" r="8" fill="#ff6b6b" stroke="#ffffff" stroke-width="2"/>
  <circle cx="48" cy="48" r="5" fill="none" stroke="#ffffff" stroke-width="2"/>
  <line x1="52" y1="52" x2="58" y2="58" stroke="#ffffff" stroke-width="2" stroke-linecap="round"/>
  
  <!-- Small data dots -->
  <circle cx="26" cy="20" r="1" fill="#357abd"/>
  <circle cx="26" cy="24" r="1" fill="#357abd"/>
  <circle cx="26" cy="28" r="1" fill="#357abd"/>
  <circle cx="26" cy="32" r="1" fill="#357abd"/>
  <circle cx="26" cy="36" r="1" fill="#357abd"/>
  <circle cx="26" cy="40" r="1" fill="#357abd"/>
</svg>
